<svg width="25" height="24" viewBox="0 0 25 24" fill="none" xmlns="http://www.w3.org/2000/svg">
    
    <!-- My services -->

    <g id="ad">
        <path fill="currentColor" d="M47.7894 7.31303C48.3873 7.31303 48.8719 6.82836 48.8719 6.23049C48.8719 5.63262 48.3873 5.14795 47.7894 5.14795C47.1915 5.14795 46.7068 5.63262 46.7068 6.23049C46.7068 6.82836 47.1915 7.31303 47.7894 7.31303Z" />
        <path fill="currentColor" d="M52.4415 7.31303C53.0394 7.31303 53.5241 6.82836 53.5241 6.23049C53.5241 5.63262 53.0394 5.14795 52.4415 5.14795C51.8437 5.14795 51.359 5.63262 51.359 6.23049C51.359 6.82836 51.8437 7.31303 52.4415 7.31303Z" />
        <path fill="currentColor" d="M20.4759 7.31445H39.9569C40.5556 7.31445 41.0409 6.82912 41.0409 6.23047C41.0409 5.63182 40.5556 5.14648 39.9569 5.14648H20.4759C19.8772 5.14648 19.3919 5.63182 19.3919 6.23047C19.3919 6.82912 19.8772 7.31445 20.4759 7.31445Z" />
        <path fill="currentColor" d="M71.1202 56.3696H69.2178V49.2685C69.2178 48.6698 68.7324 48.1845 68.1338 48.1845C67.5351 48.1845 67.0498 48.6698 67.0498 49.2685V56.3696C62.404 56.3696 9.81729 56.3696 6.95036 56.3696V19.7627C6.95036 18.2885 8.14968 17.089 9.62405 17.089H14.7685V20.0093H11.9462C10.8017 20.0093 9.87062 20.9405 9.87062 22.085V51.3736C9.87062 52.5181 10.8017 53.4493 11.9462 53.4493H62.0536C63.1982 53.4493 64.1292 52.5181 64.1292 51.3736V22.085C64.1292 20.9405 63.1982 20.0093 62.0536 20.0093H59.2315V17.089H64.376C65.8502 17.089 67.0496 18.2883 67.0496 19.7627V44.1977C67.0496 44.7964 67.535 45.2817 68.1336 45.2817C68.7323 45.2817 69.2176 44.7964 69.2176 44.1977V19.7627C69.2176 17.0931 67.0457 14.9211 64.376 14.9211H59.2315V2.99145C59.2315 1.76582 58.2344 0.768555 57.0086 0.768555H16.9914C15.7656 0.768555 14.7685 1.76568 14.7685 2.99145V14.9211H9.6239C6.95427 14.9211 4.78225 17.0929 4.78225 19.7627V56.3697H2.87979C1.29182 56.3696 0 57.6615 0 59.2495C0 63.6509 3.58091 67.2318 7.98232 67.2318H66.0177C70.4191 67.2318 74 63.6509 74 59.2495C74 57.6614 72.7082 56.3696 71.1202 56.3696ZM12.0386 22.1772H14.7683V51.2814H12.0386V22.1772ZM61.9614 22.1772V51.2814H59.2317V22.1772H61.9614ZM16.9914 2.93667H57.0088C57.039 2.93667 57.0637 2.96124 57.0637 2.99159V9.5244H25.4164C24.8178 9.5244 24.3324 10.0097 24.3324 10.6084C24.3324 11.207 24.8178 11.6924 25.4164 11.6924H57.0637V51.2815H16.9363V11.6922H20.3487C20.9473 11.6922 21.4327 11.2069 21.4327 10.6082C21.4327 10.0096 20.9473 9.52426 20.3487 9.52426H16.9363V2.99145C16.9363 2.96124 16.961 2.93667 16.9914 2.93667ZM26.5504 58.5376H47.4496V59.627C47.4496 60.2278 46.9608 60.7166 46.36 60.7166H27.64C27.0392 60.7166 26.5504 60.2278 26.5504 59.627V58.5376ZM66.0177 65.0637H7.98232C4.77632 65.0637 2.16797 62.4554 2.16797 59.2494C2.16797 58.857 2.48724 58.5376 2.87979 58.5376H24.3824V59.627C24.3824 61.4233 25.8438 62.8846 27.64 62.8846H46.36C48.1562 62.8846 49.6176 61.4233 49.6176 59.627V58.5376H71.1202C71.5128 58.5376 71.832 58.8568 71.832 59.2494C71.832 62.4555 69.2237 65.0637 66.0177 65.0637Z" />
        <path fill="currentColor" d="M22.5482 31.8115L21.7623 32.0139C20.0179 32.4633 18.9696 34.2389 19.4191 35.9836L19.9618 38.0903C20.3402 39.5592 21.6674 40.5371 23.1188 40.537C23.7424 40.537 24.0906 40.3735 24.8462 40.1979C25.3956 40.838 26.233 41.1925 27.1009 41.1093L30.9021 46.871C31.2972 47.4701 31.9621 47.8157 32.6571 47.8157C33.0878 47.8157 33.2741 47.7082 34.4117 47.4321C35.5369 47.1425 36.213 45.9972 35.9232 44.8719L34.4739 39.2464L36.0206 38.848C40.1412 37.7865 44.4812 38.8024 47.6978 41.5644L47.7113 41.6172C47.9202 42.428 48.4324 43.1089 49.1535 43.5345C49.6426 43.8233 50.188 43.971 50.7414 43.971C51.0039 43.971 51.2681 43.9378 51.5288 43.8706C52.3397 43.6617 53.0205 43.1495 53.4462 42.4284C53.8718 41.7074 53.9912 40.8637 53.7822 40.0531L48.0007 17.6126C47.7918 16.8017 47.2796 16.1209 46.5586 15.6952C45.8376 15.2697 44.994 15.1503 44.183 15.3592C43.3722 15.568 42.6913 16.0802 42.2657 16.8013C41.84 17.5224 41.7207 18.366 41.9297 19.1767L41.9432 19.2294C40.4618 23.2019 37.153 26.1886 33.0326 27.2502L24.5214 29.443C23.3957 29.7331 22.6281 30.7114 22.5482 31.8115ZM23.3908 38.3341C22.8082 38.4843 22.2115 38.1324 22.0612 37.5495L21.5185 35.4428C21.3679 34.8585 21.719 34.264 22.3033 34.1134L22.9543 33.9456L24.0417 38.1665L23.3908 38.3341ZM33.8074 45.3491L32.686 45.638L29.3416 40.5688L32.3744 39.7874L33.8074 45.3491ZM44.1326 17.9032C44.2638 17.6809 44.4738 17.523 44.7239 17.4585C44.8045 17.4377 44.8853 17.4279 44.965 17.4279C45.3954 17.4279 45.7889 17.7179 45.9012 18.1534L51.6828 40.5939C51.8157 41.11 51.504 41.6381 50.9879 41.7711C50.4719 41.9041 49.9436 41.5925 49.8107 41.0762L44.029 18.6357C43.9647 18.3857 44.0014 18.1256 44.1326 17.9032ZM42.7794 22.4745L46.8616 38.3191C41.0175 34.9137 35.4519 36.7816 35.323 36.7888L33.4168 29.3898C33.5338 29.3335 39.3021 28.2904 42.7794 22.4745ZM25.0623 31.5425L31.3173 29.931L33.2235 37.3299C31.3201 37.8203 28.2819 38.6031 26.9686 38.9415C26.5142 39.0581 26.3995 38.5979 26.3879 38.5835L24.7222 32.1186C24.6572 31.8659 24.8098 31.6075 25.0623 31.5425Z" />
    </g>
    <g id ="codding">
        
        <path fill="currentColor"  d="M63.2188 7.4375H4.78125C3.79531 7.43859 2.85007 7.83074 2.1529 8.5279C1.45574 9.22507 1.06359 10.1703 1.0625 11.1562V48.3438C1.06359 49.3297 1.45574 50.2749 2.1529 50.9721C2.85007 51.6693 3.79531 52.0614 4.78125 52.0625H26.0552L24.7802 55.25H19.125C18.8432 55.25 18.573 55.3619 18.3737 55.5612C18.1744 55.7605 18.0625 56.0307 18.0625 56.3125V58.4375H11.6875C11.4057 58.4375 11.1355 58.5494 10.9362 58.7487C10.7369 58.948 10.625 59.2182 10.625 59.5C10.625 59.7818 10.7369 60.052 10.9362 60.2513C11.1355 60.4506 11.4057 60.5625 11.6875 60.5625H56.3125C56.5943 60.5625 56.8645 60.4506 57.0638 60.2513C57.2631 60.052 57.375 59.7818 57.375 59.5C57.375 59.2182 57.2631 58.948 57.0638 58.7487C56.8645 58.5494 56.5943 58.4375 56.3125 58.4375H49.9375V56.3125C49.9375 56.0307 49.8256 55.7605 49.6263 55.5612C49.427 55.3619 49.1568 55.25 48.875 55.25H43.2198L41.9448 52.0625H63.2188C64.2047 52.0614 65.1499 51.6693 65.8471 50.9721C66.5443 50.2749 66.9364 49.3297 66.9375 48.3438V11.1562C66.9364 10.1703 66.5443 9.22507 65.8471 8.5279C65.1499 7.83074 64.2047 7.43859 63.2188 7.4375ZM47.8125 57.375V58.4375H20.1875V57.375H47.8125ZM27.0698 55.25L28.3448 52.0625H39.6552L40.9302 55.25H27.0698ZM64.8125 48.3438C64.8121 48.7663 64.6441 49.1715 64.3453 49.4703C64.0465 49.7691 63.6413 49.9371 63.2188 49.9375H4.78125C4.35867 49.9371 3.9535 49.7691 3.65469 49.4703C3.35588 49.1715 3.18785 48.7663 3.1875 48.3438V45.6875H64.8125V48.3438ZM64.8125 43.5625H3.1875V11.1562C3.18785 10.7337 3.35588 10.3285 3.65469 10.0297C3.9535 9.73088 4.35867 9.56285 4.78125 9.5625H63.2188C63.6413 9.56285 64.0465 9.73088 64.3453 10.0297C64.6441 10.3285 64.8121 10.7337 64.8125 11.1562V43.5625Z"/>
        <path fill="currentColor"  d="M29.1669 34.888C29.2836 34.9646 29.4142 35.0174 29.5513 35.0435C29.6884 35.0696 29.8292 35.0684 29.9659 35.04C30.1025 35.0117 30.2322 34.9567 30.3475 34.8782C30.4629 34.7997 30.5617 34.6992 30.6382 34.5826L39.0054 21.8326C39.1601 21.597 39.2148 21.3096 39.1575 21.0337C39.1003 20.7578 38.9358 20.5159 38.7002 20.3613C38.4646 20.2066 38.1773 20.1519 37.9014 20.2092C37.6254 20.2664 37.3836 20.4309 37.2289 20.6665L28.8617 33.4165C28.7851 33.5331 28.7322 33.6637 28.7061 33.8008C28.68 33.9379 28.6811 34.0788 28.7095 34.2155C28.7378 34.3521 28.7928 34.4819 28.8713 34.5973C28.9498 34.7127 29.0503 34.8115 29.1669 34.888Z" />
        <path fill="currentColor"   d="M40.7573 34.8165C40.9738 34.9969 41.2531 35.0839 41.5337 35.0583C41.8143 35.0328 42.0733 34.8968 42.2537 34.6804L47.5662 28.3054C47.7253 28.1144 47.8124 27.8738 47.8124 27.6252C47.8124 27.3767 47.7253 27.136 47.5662 26.9451L42.2537 20.5701C42.1647 20.462 42.0551 20.3726 41.9314 20.307C41.8077 20.2413 41.6723 20.2008 41.5328 20.1878C41.3934 20.1747 41.2528 20.1893 41.119 20.2307C40.9853 20.2722 40.861 20.3397 40.7534 20.4293C40.6459 20.519 40.5571 20.629 40.4921 20.7531C40.4272 20.8772 40.3875 21.0128 40.3752 21.1523C40.3629 21.2918 40.3783 21.4324 40.4205 21.5659C40.4627 21.6994 40.5309 21.8233 40.6212 21.9304L45.3668 27.6252L40.6212 33.3201C40.4408 33.5366 40.3538 33.8159 40.3793 34.0965C40.4049 34.3771 40.5408 34.6361 40.7573 34.8165Z" />
        <path fill="currentColor"   d="M25.7462 34.6804C25.8352 34.7884 25.9448 34.8779 26.0685 34.9435C26.1922 35.0091 26.3276 35.0496 26.4671 35.0627C26.6065 35.0758 26.7471 35.0612 26.8809 35.0197C27.0146 34.9782 27.1389 34.9107 27.2465 34.8211C27.354 34.7315 27.4428 34.6214 27.5078 34.4974C27.5727 34.3733 27.6124 34.2376 27.6247 34.0981C27.637 33.9586 27.6216 33.8181 27.5794 33.6845C27.5372 33.551 27.469 33.4272 27.3787 33.3201L22.6331 27.6252L27.3787 21.9304C27.469 21.8233 27.5372 21.6994 27.5794 21.5659C27.6216 21.4324 27.637 21.2918 27.6247 21.1523C27.6124 21.0128 27.5727 20.8772 27.5078 20.7531C27.4428 20.629 27.354 20.519 27.2465 20.4293C27.1389 20.3397 27.0146 20.2722 26.8809 20.2307C26.7471 20.1893 26.6065 20.1747 26.4671 20.1878C26.3276 20.2008 26.1922 20.2413 26.0685 20.307C25.9448 20.3726 25.8352 20.462 25.7462 20.5701L20.4337 26.9451C20.2746 27.136 20.1875 27.3767 20.1875 27.6252C20.1875 27.8737 20.2746 28.1144 20.4337 28.3054L25.7462 34.6804Z" />
    </g>

    


    <g id="gameDevelopment">
        <path fill="currentColor" d="M32.375 38.1562H41.625V40.4688H32.375V38.1562Z" />
        <path fill="currentColor" d="M35.8438 34.6875H38.1562V43.9375H35.8438V34.6875Z" />
        <path fill="currentColor" d="M65.9062 38.1562H68.2188V40.4688H65.9062V38.1562Z" />
        <path fill="currentColor" d="M56.6562 38.1562H58.9688V40.4688H56.6562V38.1562Z" />
        <path fill="currentColor" d="M61.2812 33.5312H63.5938V35.8438H61.2812V33.5312Z" />
        <path fill="currentColor" d="M61.2812 42.7812H63.5938V45.0938H61.2812V42.7812Z" />
        <path fill="currentColor" d="M10.6598 20.3789L5.45663 13.875L10.6598 7.37109L12.4653 8.81641L8.4184 13.875L12.4653 18.9336L10.6598 20.3789Z"/>
        <path fill="currentColor" d="M28.6528 20.3789L26.8473 18.9336L30.8953 13.875L26.8473 8.81641L28.6528 7.37109L33.8548 13.875L28.6528 20.3789Z" />
        <path fill="currentColor" d="M14.7377 17.7375L22.8337 8.48975L24.5737 10.0124L16.4777 19.2607L14.7377 17.7375Z" />
        <path fill="currentColor" d="M9.25 50.875H4.625V46.25H6.9375V48.5625H9.25V50.875Z" />
        <path fill="currentColor" d="M70.5312 2.3125H3.46875C1.55315 2.3125 0 3.86565 0 5.78125V52.0312C0 53.9469 1.55315 55.5 3.46875 55.5H27.75V61.2812C27.75 63.1969 26.1969 64.75 24.2812 64.75H18.5V71.6875H55.5V64.75H49.7188C47.8031 64.75 46.25 63.1969 46.25 61.2812V55.5H70.5312C72.4469 55.5 74 53.9469 74 52.0312V5.78125C74 3.86565 72.4469 2.3125 70.5312 2.3125ZM53.1875 67.0625V69.375H20.8125V67.0625H53.1875ZM37 62.4861C38.9156 62.4861 40.4688 60.9329 40.4688 59.0173V55.5H43.9375V61.2812C43.942 62.5363 44.3587 63.7552 45.1237 64.75H28.8763C29.6413 63.7552 30.058 62.5363 30.0625 61.2812V55.5H33.5312V59.0173C33.5312 60.9329 35.0844 62.4861 37 62.4861ZM35.8438 59.0173V55.5H38.1562V59.0173C38.1562 59.6558 37.6385 60.1736 37 60.1736C36.3615 60.1736 35.8438 59.6558 35.8438 59.0173ZM71.6875 52.0312C71.6875 52.6698 71.1698 53.1875 70.5312 53.1875H3.46875C2.83022 53.1875 2.3125 52.6698 2.3125 52.0312V41.625H25.669C26.6265 46.3319 30.3956 49.9553 35.1369 50.726C39.8776 51.4972 44.6009 49.2547 47.0003 45.0938H52.4349C54.3725 48.4626 57.8774 50.6288 61.7572 50.8558C65.6369 51.0828 69.3699 49.3399 71.6875 46.2201V52.0312ZM62.4375 48.5625C58.923 48.571 55.7112 46.5758 54.1608 43.422L53.8407 42.7812H45.5968L45.2767 43.422C43.2487 47.5107 38.5419 49.5099 34.1918 48.1295C29.8412 46.7485 27.1482 42.4019 27.8494 37.8915C28.55 33.3816 32.436 30.0574 37 30.0625H62.4375C67.5463 30.0625 71.6875 34.2037 71.6875 39.3125C71.6875 44.4213 67.5463 48.5625 62.4375 48.5625ZM71.6875 32.4049C69.5128 29.4793 66.083 27.7534 62.4375 27.75H37C30.6169 27.7568 25.4443 32.9294 25.4375 39.3125H2.3125V5.78125C2.3125 5.14272 2.83022 4.625 3.46875 4.625H70.5312C71.1698 4.625 71.6875 5.14272 71.6875 5.78125V32.4049Z" />
        <path fill="currentColor" d="M47.4062 38.1562H52.0312V40.4688H47.4062V38.1562Z" />
        <path fill="currentColor" d="M34.6875 9.25H43.9375V11.5625H34.6875V9.25Z" />
        <path fill="currentColor" d="M48.5625 9.25H67.0625V11.5625H48.5625V9.25Z" />
        <path fill="currentColor" d="M50.875 13.875H67.0625V16.1875H50.875V13.875Z" />
        <path fill="currentColor" d="M37 13.875H46.25V16.1875H37V13.875Z" />
        <path fill="currentColor" d="M34.6875 18.5H57.8125V20.8125H34.6875V18.5Z" />
        <path fill="currentColor" d="M62.4375 18.5H67.0625V20.8125H62.4375V18.5Z" />
        <path fill="currentColor" d="M6.9375 23.125H18.5V25.4375H6.9375V23.125Z" />
        <path fill="currentColor" d="M23.125 23.125H45.0938V25.4375H23.125V23.125Z" />
        <path fill="currentColor" d="M48.5625 23.125H67.0625V25.4375H48.5625V23.125Z" />
        <path fill="currentColor" d="M6.9375 27.75H25.4375V30.0625H6.9375V27.75Z" />
        <path fill="currentColor" d="M6.9375 32.375H16.1875V34.6875H6.9375V32.375Z" />
        <path fill="currentColor" d="M18.5 32.375H23.125V34.6875H18.5V32.375Z" />    
    </g>
    <g id="illustration">
        <g clip-path="url(#clip0_1_1497)">
        <path fill="currentColor" d="M31.6094 49.3384C31.0591 49.3384 30.6133 49.7844 30.6133 50.3345C30.6133 50.8846 31.0591 51.3306 31.6094 51.3306H36.3906C36.9409 51.3306 37.3867 50.8846 37.3867 50.3345C37.3867 49.7844 36.9409 49.3384 36.3906 49.3384H31.6094Z" />
        <path fill="currentColor" d="M11.9531 33.8716H18.5374C18.9396 34.9183 19.9528 35.6646 21.1394 35.6646C22.3259 35.6646 23.3391 34.9183 23.7413 33.8716H25.0573C25.6076 33.8716 26.0534 33.4256 26.0534 32.8755C26.0534 32.3254 25.6076 31.8794 25.0573 31.8794H23.7413C23.3391 30.8327 22.3259 30.0864 21.1394 30.0864C19.9528 30.0864 18.9396 30.8327 18.5374 31.8794H11.9531C11.4029 31.8794 10.957 32.3254 10.957 32.8755C10.957 33.4256 11.4029 33.8716 11.9531 33.8716ZM21.1394 32.0786C21.5788 32.0786 21.9362 32.436 21.9362 32.8755C21.9362 33.315 21.5788 33.6724 21.1394 33.6724C20.6999 33.6724 20.3425 33.315 20.3425 32.8755C20.3425 32.436 20.6999 32.0786 21.1394 32.0786Z" />
        <path fill="currentColor" d="M11.9531 28.1606H13.2249C13.6271 29.2073 14.6403 29.9536 15.8269 29.9536C17.0134 29.9536 18.0266 29.2073 18.4288 28.1606H25.0573C25.6076 28.1606 26.0534 27.7147 26.0534 27.1646C26.0534 26.6144 25.6076 26.1685 25.0573 26.1685H18.4288C18.0266 25.1218 17.0134 24.3755 15.8269 24.3755C14.6403 24.3755 13.6271 25.1218 13.2249 26.1685H11.9531C11.4029 26.1685 10.957 26.6144 10.957 27.1646C10.957 27.7147 11.4029 28.1606 11.9531 28.1606ZM15.8269 26.3677C16.2663 26.3677 16.6237 26.7251 16.6237 27.1646C16.6237 27.604 16.2663 27.9614 15.8269 27.9614C15.3874 27.9614 15.03 27.604 15.03 27.1646C15.03 26.7251 15.3874 26.3677 15.8269 26.3677Z" />
        <path fill="currentColor" d="M25.2566 18.9966C25.8067 18.9966 26.2527 18.5506 26.2527 18.0005C26.2527 17.4504 25.8067 17.0044 25.2566 17.0044C24.7064 17.0044 24.2605 17.4504 24.2605 18.0005C24.2605 18.5506 24.7064 18.9966 25.2566 18.9966Z" />
        <path fill="currentColor" d="M22.5117 18.9966C23.0618 18.9966 23.5078 18.5506 23.5078 18.0005C23.5078 17.4504 23.0618 17.0044 22.5117 17.0044C21.9616 17.0044 21.5156 17.4504 21.5156 18.0005C21.5156 18.5506 21.9616 18.9966 22.5117 18.9966Z" />
        <path fill="currentColor" d="M19.7669 18.9966C20.317 18.9966 20.763 18.5506 20.763 18.0005C20.763 17.4504 20.317 17.0044 19.7669 17.0044C19.2167 17.0044 18.7708 17.4504 18.7708 18.0005C18.7708 18.5506 19.2167 18.9966 19.7669 18.9966Z" />
        <path fill="currentColor" d="M65.0117 6.7048H64.6386L64.9169 6.42655C65.7503 5.59316 65.7503 4.23701 64.9169 3.40361L62.7364 1.22309C61.903 0.389828 60.547 0.389828 59.7134 1.22309L54.2321 6.70466H2.98828C1.34061 6.70466 0 8.04514 0 9.69294V51.0593C0 53.0732 1.63838 54.7116 3.65234 54.7116H27.2458V61.758H22.4453C21.1638 61.758 20.1211 62.8007 20.1211 64.0822V65.0775C20.1211 66.359 21.1638 67.4017 22.4453 67.4017H45.5547C46.8362 67.4017 47.8789 66.359 47.8789 65.0775V64.0822C47.8789 62.8007 46.8362 61.758 45.5547 61.758H40.7542V54.7116H51.3984C51.9487 54.7116 52.3945 54.2656 52.3945 53.7155C52.3945 53.1654 51.9487 52.7194 51.3984 52.7194H3.65234C2.73687 52.7194 1.99219 51.9747 1.99219 51.0593V48.1108H66.0078V51.0593C66.0078 51.9747 65.2631 52.7194 64.3477 52.7194H56.0469C55.4966 52.7194 55.0508 53.1654 55.0508 53.7155C55.0508 54.2656 55.4966 54.7116 56.0469 54.7116H64.3477C66.3616 54.7116 68 53.0732 68 51.0593V9.69308C68 8.04541 66.6594 6.7048 65.0117 6.7048ZM45.5547 63.7503C45.7378 63.7503 45.8867 63.8993 45.8867 64.0823V65.0776C45.8867 65.2606 45.7378 65.4096 45.5547 65.4096H22.4453C22.2622 65.4096 22.1133 65.2606 22.1133 65.0776V64.0823C22.1133 63.8993 22.2622 63.7503 22.4453 63.7503H45.5547ZM29.238 54.7119H38.7621V61.7582H29.238V54.7119ZM61.1222 2.63197C61.179 2.57526 61.2712 2.57539 61.3278 2.63197L63.5081 4.81235C63.5649 4.86906 63.5649 4.96137 63.5081 5.01795L61.4276 7.09845L59.0417 4.71248L61.1222 2.63197ZM57.6329 6.12122L60.0188 8.50719L59.324 9.20194L56.9382 6.81596L57.6329 6.12122ZM55.5294 8.2247L57.9154 10.6107L46.1282 22.3979L43.7422 20.0119L55.5294 8.2247ZM54.0547 17.3315C55.4095 17.3315 56.5117 18.4337 56.5117 19.7886C56.5117 21.1434 55.4095 22.2456 54.0547 22.2456C52.6999 22.2456 51.5977 21.1434 51.5977 19.7886C51.5977 19.7727 51.5998 19.7575 51.6 19.7417L54.0082 17.3339C54.0237 17.3336 54.039 17.3315 54.0547 17.3315ZM44.3984 23.4857L41.4504 24.6897L42.6545 21.7417L44.3984 23.4857ZM66.0078 46.1189H1.99219V9.69308C1.99219 9.1439 2.43897 8.69698 2.98828 8.69698H52.2401L50.7212 10.2158H16.8672C16.3169 10.2158 15.8711 10.6618 15.8711 11.2119C15.8711 11.762 16.3169 12.208 16.8672 12.208H48.7292L41.7033 19.2343C41.5047 19.4346 41.3494 19.6684 41.2425 19.93L39.0175 25.3774C38.8134 25.8777 38.9284 26.4479 39.3105 26.8299C39.567 27.0863 39.908 27.2223 40.2559 27.2223C40.4264 27.2223 40.5984 27.1897 40.7629 27.1226L46.2103 24.8977C46.4645 24.7939 46.6918 24.6435 46.8884 24.4529L49.9186 21.4231C50.5714 23.0698 52.1784 24.2379 54.0548 24.2379C56.5081 24.2379 58.504 22.242 58.504 19.7887C58.504 17.9126 57.3362 16.3057 55.6897 15.6528L59.1348 12.2081H62.4968V42.608H61.9688L58.359 36.3556C58.0841 35.879 57.4745 35.7158 56.9983 35.991C56.5219 36.2661 56.3587 36.8753 56.6338 37.3517L59.6685 42.608H45.7538L44.2614 40.0231L51.2187 27.9726L54.3094 33.326C54.5846 33.8024 55.1938 33.9658 55.6701 33.6906C56.1465 33.4155 56.3097 32.8063 56.0347 32.3299L52.7373 26.6188C52.4203 26.0698 51.8527 25.742 51.2186 25.742C50.5846 25.742 50.0168 26.0698 49.6998 26.6188L43.1109 38.031L34.6569 23.3883C34.3399 22.8393 33.7722 22.5115 33.138 22.5115C32.5041 22.5115 31.9364 22.8393 31.6193 23.3883L29.3733 27.2785V16.6013C29.3733 15.3198 28.3306 14.2771 27.0491 14.2771H9.96094C8.67943 14.2771 7.63672 15.3198 7.63672 16.6013V38.3826C7.63672 39.298 8.3814 40.0427 9.29688 40.0427H22.0042L20.5231 42.6081H5.50335V12.208H12.2188C12.769 12.208 13.2148 11.762 13.2148 11.2119C13.2148 10.6618 12.769 10.2158 12.2188 10.2158H5.17132C4.25584 10.2158 3.51116 10.9605 3.51116 11.876V42.9399C3.51116 43.8554 4.25584 44.6001 5.17132 44.6001H62.8288C63.7443 44.6001 64.489 43.8554 64.489 42.9399V11.876C64.489 10.9605 63.7443 10.2158 62.8288 10.2158H61.1272L62.6463 8.69698H65.0117C65.561 8.69698 66.0078 9.1439 66.0078 9.69308V46.1189ZM27.3816 22.1178V38.0503H9.62891V22.1178H27.3816ZM9.62891 20.1256V16.6011C9.62891 16.418 9.77779 16.269 9.96094 16.269H27.0495C27.2327 16.269 27.3816 16.418 27.3816 16.6011V20.1256H9.62891ZM24.3047 40.0425H27.7136C28.6291 40.0425 29.3737 39.2978 29.3737 38.3823V36.2723C29.6229 36.3918 29.9003 36.4565 30.1909 36.4565C30.8709 36.4565 31.4797 36.1048 31.8196 35.5161L33.5148 32.58C33.5661 32.4913 33.6445 32.4725 33.7009 32.4725C33.7576 32.4725 33.836 32.4913 33.8871 32.58L34.9322 34.3901C35.2722 34.9791 35.8812 35.3307 36.5613 35.3307C37.2413 35.3307 37.8502 34.9791 38.1901 34.3902L38.4496 33.9408L43.4535 42.6077H22.8236L24.3047 40.0425ZM29.3737 32.9379V31.2626L33.1386 24.7419L37.2993 31.9486L36.5612 33.2271L35.6123 31.5838C35.2134 30.8927 34.4988 30.4802 33.7008 30.4802C32.9028 30.4802 32.1883 30.8927 31.7893 31.5838L30.1905 34.3529L29.3737 32.9379Z" />
        </g>
        <defs>
        <clipPath id="clip0_1_1497">
        <rect width="68" height="68" />
        </clipPath>
        </defs>
    </g>
    <g id="microphone">
        <g clip-path="url(#clip0_1_1551)">
        <path fill="currentColor" d="M37 0C29.0177 0 22.5217 6.7533 22.5217 15.0526V37C22.5217 45.3009 29.0177 52.0526 37 52.0526C44.9823 52.0526 51.4783 45.3009 51.4783 37V15.0526C51.4783 6.7533 44.9823 0 37 0ZM37 48.8352C31.3117 48.8352 26.6062 44.3743 25.855 38.6087H48.1434C47.3938 44.3759 42.6883 48.8352 37 48.8352ZM48.2609 35.3913H25.7391V15.0526C25.7391 8.52609 30.7904 3.21739 37 3.21739C43.2096 3.21739 48.2609 8.52609 48.2609 15.0526V35.3913Z" />
        <path fill="currentColor" d="M59.5217 28.9565C58.6337 28.9565 57.913 29.6772 57.913 30.5652V37C57.913 48.5312 48.5311 57.9131 37 57.9131C25.4689 57.9131 16.087 48.5312 16.087 37V30.5652C16.087 29.6772 15.3663 28.9565 14.4783 28.9565C13.5903 28.9565 12.8696 29.6772 12.8696 30.5652V37C12.8696 49.7618 22.8354 60.2151 35.3913 61.0484V70.7826H27.3478C26.4598 70.7826 25.7391 71.5033 25.7391 72.3913C25.7391 73.2793 26.4598 74 27.3478 74H46.6522C47.5402 74 48.2609 73.2793 48.2609 72.3913C48.2609 71.5033 47.5402 70.7826 46.6522 70.7826H38.6087V61.0484C51.1646 60.2151 61.1304 49.7618 61.1304 37V30.5652C61.1304 29.6772 60.4097 28.9565 59.5217 28.9565Z" />
        </g>
        <defs>
        <clipPath id="clip0_1_1551">
        <rect width="74" height="74" />
        </clipPath>
        </defs>
    </g>
    <g id="photographer">
        <path fill="currentColor" d="M55.3549 72.9677H74.7127L69.7433 58.0584C68.4438 54.1597 65.1275 51.2686 61.0878 50.5113L47.8065 48.0203V44.9469C50.9881 42.6509 53.2338 39.1535 53.8854 35.1201C56.8545 34.6182 59.129 32.0454 59.129 28.9355V20.129C59.129 9.03039 50.0987 0 39 0C27.9014 0 18.871 9.03039 18.871 20.129V28.9355C18.871 32.0416 21.1342 34.6295 24.0982 35.1365C24.7524 39.1698 27.0107 42.671 30.1936 44.9657V48.0216L16.9109 50.5126C12.8725 51.2699 9.555 54.1609 8.25542 58.0597L3.28732 72.9677H22.6452V70.4516H19.2245L21.3494 61.9496L18.9087 61.3407L16.6304 70.4516H6.77719L10.6432 58.8548C11.6535 55.8228 14.2337 53.5734 17.3751 52.9834L25.389 51.4813L27.4384 60.7004C26.0998 61.2816 25.1613 62.6126 25.1613 64.1613V74.2258C25.1613 76.3066 26.8547 78 28.9355 78H49.0645C51.1454 78 52.8387 76.3066 52.8387 74.2258V64.1613C52.8387 62.6126 51.9002 61.2816 50.5629 60.7004L52.6123 51.4813L60.6261 52.9834C63.7675 53.5734 66.3466 55.8228 67.358 58.8548L71.2228 70.4516H61.3697L59.0913 61.3407L56.6507 61.9496L58.7755 70.4516H55.3549V72.9677ZM50.1377 51.017L48.4003 58.8346L47.5309 55.3548H42.037L46.9686 50.4232L50.1377 51.017ZM46.1949 60.3871H31.8051L32.4342 57.871H45.5658L46.1949 60.3871ZM39 54.834L32.7097 48.5437V46.4226C34.627 47.3057 36.7544 47.8064 39 47.8064C41.2469 47.8064 43.373 47.2995 45.2903 46.4163V48.5437L39 54.834ZM54.0968 32.4782V25.394C55.5574 25.9149 56.6129 27.2987 56.6129 28.9367C56.6129 30.5747 55.5574 31.9574 54.0968 32.4782ZM23.9032 32.4945C22.4388 31.975 21.3871 30.576 21.3871 28.9355C21.3871 27.295 22.4388 25.896 23.9032 25.3764V32.4945ZM21.3871 23.9359V20.129C21.3871 10.4168 29.2877 2.51613 39 2.51613C48.7123 2.51613 56.6129 10.4168 56.6129 20.129V23.9359C55.8681 23.3723 55.0076 22.9559 54.0565 22.7685C53.859 21.2827 52.5984 20.129 51.0598 20.129C50.2609 20.129 49.4784 20.4536 48.8494 21.0826C46.7245 23.2075 44.0323 24.5625 41.1161 25.0028L41.1966 24.8417C41.4054 24.4215 41.5161 23.9523 41.5161 23.483V23.166C41.5161 21.4915 40.1537 20.129 38.4792 20.129C37.6803 20.129 36.8978 20.4536 36.3316 21.0185C33.6809 23.668 30.1646 25.1374 26.4194 25.1613V22.6452H25.1613C23.7397 22.6452 22.4414 23.1371 21.3871 23.9359ZM26.4194 32.7097V27.6774C30.8364 27.6535 34.9855 25.9224 38.1093 22.7986C38.4125 22.4942 39 22.742 39 23.166V23.483C39 23.5635 38.9811 23.6441 38.9446 23.717L36.9645 27.6774H39C43.3932 27.6774 47.5221 25.9677 50.6899 22.7986C50.9944 22.4942 51.5807 22.742 51.5807 23.166V32.7097C51.5807 39.6466 45.937 45.2903 39 45.2903C32.063 45.2903 26.4194 39.6466 26.4194 32.7097ZM31.0314 50.4232L35.963 55.3548H30.4691L29.5997 58.8346L27.8624 51.017L31.0314 50.4232ZM28.9355 75.4839C28.2423 75.4839 27.6774 74.9203 27.6774 74.2258V64.1613C27.6774 63.4668 28.2423 62.9032 28.9355 62.9032H32.8493C31.2126 64.5035 30.1936 66.7303 30.1936 69.1936C30.1936 71.6568 31.2126 73.8836 32.8493 75.4839H28.9355ZM39 75.4839C35.5315 75.4839 32.7097 72.662 32.7097 69.1936C32.7097 65.7251 35.5315 62.9032 39 62.9032C42.4685 62.9032 45.2903 65.7251 45.2903 69.1936C45.2903 72.662 42.4685 75.4839 39 75.4839ZM50.3226 74.2258C50.3226 74.9203 49.7577 75.4839 49.0645 75.4839H45.1507C46.7874 73.8836 47.8065 71.6568 47.8065 69.1936C47.8065 66.7303 46.7874 64.5035 45.1507 62.9032H49.0645C49.7577 62.9032 50.3226 63.4668 50.3226 64.1613V74.2258Z"  />
        <path fill="currentColor" d="M39 65.4194C36.9192 65.4194 35.2258 67.1128 35.2258 69.1936C35.2258 71.2745 36.9192 72.9678 39 72.9678C41.0808 72.9678 42.7742 71.2745 42.7742 69.1936C42.7742 67.1128 41.0808 65.4194 39 65.4194ZM39 70.4517C38.3068 70.4517 37.7419 69.8881 37.7419 69.1936C37.7419 68.4992 38.3068 67.9356 39 67.9356C39.6932 67.9356 40.2581 68.4992 40.2581 69.1936C40.2581 69.8881 39.6932 70.4517 39 70.4517Z" />   
    </g>


    <!-- right menu -->
    <g id="blog">
        <g clip-path="url(#clip0_1_1592)">
        <path d="M15.75 1.5C4.5 1.5 3 12 2.25 16.5H3.7485C4.248 14.0002 5.49825 12.6255 7.5 12.375C10.5 12 12.75 9.375 13.5 7.125L12.375 6.375L13.125 5.625C13.875 4.875 14.628 3.75 15.75 1.5Z" fill="#2B2B2B"/>
        </g>
        <defs>
        <clipPath id="clip0_1_1592">
        <rect width="18" height="18" fill="white"/>
        </clipPath>
        </defs>   
    </g>

    <g id="contact">
        <g clip-path="url(#clip0_1_1595)">
        <path d="M4.84125 14.25L1.5 16.875V3C1.5 2.80109 1.57902 2.61032 1.71967 2.46967C1.86032 2.32902 2.05109 2.25 2.25 2.25H15.75C15.9489 2.25 16.1397 2.32902 16.2803 2.46967C16.421 2.61032 16.5 2.80109 16.5 3V13.5C16.5 13.6989 16.421 13.8897 16.2803 14.0303C16.1397 14.171 15.9489 14.25 15.75 14.25H4.84125Z" fill="#2B2B2B"/>
        </g>
        <defs>
        <clipPath id="clip0_1_1595">
        <rect width="18" height="18" fill="white"/>
        </clipPath>
        </defs>    
    </g>

    <g id="education">
        <g clip-path="url(#clip0_1_1601)">
        <path d="M12.7636 11.272L9.25 14.6259L5.73638 11.272C3.10301 11.381 1 13.4376 1 15.9759V16.3134C1 17.245 1.79185 18.0009 2.76786 18.0009H15.7321C16.7081 18.0009 17.5 17.245 17.5 16.3134V15.9759C17.5 13.4376 15.397 11.381 12.7636 11.272ZM1.50089 2.80635L1.73661 2.85909V4.91221C1.47879 5.05987 1.29464 5.31651 1.29464 5.62589C1.29464 5.9212 1.46406 6.16729 1.70346 6.31846L1.12891 8.5087C1.06629 8.75128 1.20625 9.00089 1.40882 9.00089H2.94833C3.15089 9.00089 3.29085 8.75128 3.22824 8.5087L2.65368 6.31846C2.89308 6.16729 3.0625 5.9212 3.0625 5.62589C3.0625 5.31651 2.87835 5.05987 2.62054 4.91221V3.06299L5.05134 3.62198C4.7346 4.22667 4.53571 4.90167 4.53571 5.62589C4.53571 8.11143 6.64609 10.1259 9.25 10.1259C11.8539 10.1259 13.9643 8.11143 13.9643 5.62589C13.9643 4.90167 13.7691 4.22667 13.4487 3.62198L16.9954 2.80635C17.6657 2.65166 17.6657 1.85362 16.9954 1.69893L9.98292 0.0817384C9.50413 -0.0272461 8.99955 -0.0272461 8.52076 0.0817384L1.50089 1.69541C0.834263 1.8501 0.834263 2.65166 1.50089 2.80635Z" fill="black"/>
        </g>
        <defs>
        <clipPath id="clip0_1_1601">
        <rect width="18" height="18" fill="white"/>
        </clipPath>
        </defs>    
    </g>

    <g id="home">
        <g clip-path="url(#clip0_1_1586)">
        <path d="M14.9999 14.9999C14.9999 15.1989 14.9209 15.3896 14.7803 15.5303C14.6396 15.6709 14.4488 15.7499 14.2499 15.7499H3.74992C3.55101 15.7499 3.36025 15.6709 3.21959 15.5303C3.07894 15.3896 2.99992 15.1989 2.99992 14.9999V8.24994H0.749924L8.49517 1.20894C8.63326 1.0833 8.81323 1.01367 8.99992 1.01367C9.18661 1.01367 9.36659 1.0833 9.50467 1.20894L17.2499 8.24994H14.9999V14.9999Z" fill="#2B2B2B"/>
        </g>
        <defs>
        <clipPath id="clip0_1_1586">
        <rect width="18" height="18" fill="white"/>
        </clipPath>
        </defs>    
    </g>

    <g id="portfolio">
        <g clip-path="url(#clip0_1_1589)">
        <path d="M6.75 9.75V12H11.25V9.75H16.5V15C16.5 15.1989 16.421 15.3897 16.2803 15.5303C16.1397 15.671 15.9489 15.75 15.75 15.75H2.25C2.05109 15.75 1.86032 15.671 1.71967 15.5303C1.57902 15.3897 1.5 15.1989 1.5 15V9.75H6.75ZM8.25 8.25H9.75V10.5H8.25V8.25ZM5.25 3.75V1.5C5.25 1.30109 5.32902 1.11032 5.46967 0.96967C5.61032 0.829018 5.80109 0.75 6 0.75H12C12.1989 0.75 12.3897 0.829018 12.5303 0.96967C12.671 1.11032 12.75 1.30109 12.75 1.5V3.75H15.75C15.9489 3.75 16.1397 3.82902 16.2803 3.96967C16.421 4.11032 16.5 4.30109 16.5 4.5V8.25H11.25V6.75H6.75V8.25H1.5V4.5C1.5 4.30109 1.57902 4.11032 1.71967 3.96967C1.86032 3.82902 2.05109 3.75 2.25 3.75H5.25ZM6.75 2.25V3.75H11.25V2.25H6.75Z" fill="#2B2B2B"/>
        </g>
        <defs>
        <clipPath id="clip0_1_1589">
        <rect width="18" height="18" fill="white"/>
        </clipPath>
        </defs>    
    </g>

    <g id="services">
        <g clip-path="url(#clip0_1_1598)">
        <path d="M17.5 4.28699V4.5H12V0H12.2603C12.5338 0 12.7962 0.0889101 12.9896 0.247113L17.198 3.69035C17.3913 3.8486 17.5 4.06321 17.5 4.28699ZM11.6562 5.625C11.0891 5.625 10.625 5.24531 10.625 4.78125V0H2.03125C1.4617 0 1 0.377754 1 0.84375V17.1562C1 17.6222 1.4617 18 2.03125 18H16.4688C17.0383 18 17.5 17.6222 17.5 17.1562V5.625H11.6562ZM6.29401 14.0803C6.27317 14.0984 6.24815 14.1131 6.22039 14.1234C6.19263 14.1337 6.16266 14.1394 6.13221 14.1402C6.10175 14.141 6.0714 14.1368 6.04289 14.1281C6.01437 14.1193 5.98826 14.106 5.96603 14.0889L3.17882 11.951C3.15567 11.9332 3.13722 11.9118 3.1246 11.888C3.11199 11.8641 3.10548 11.8384 3.10548 11.8125C3.10548 11.7865 3.11199 11.7608 3.1246 11.737C3.13722 11.7132 3.15567 11.6917 3.17882 11.674L5.96603 9.53606C5.98826 9.51901 6.01437 9.50571 6.04289 9.49691C6.0714 9.48812 6.10175 9.484 6.13221 9.48481C6.16266 9.48561 6.19263 9.49131 6.22039 9.50159C6.24815 9.51187 6.27317 9.52652 6.29401 9.54471L7.13529 10.2789C7.15655 10.2975 7.17304 10.3194 7.18377 10.3432C7.19451 10.3671 7.19927 10.3925 7.19778 10.4179C7.19629 10.4433 7.18858 10.4682 7.1751 10.4911C7.16161 10.514 7.14264 10.5345 7.11931 10.5513L5.36777 11.8125L7.11931 13.0737C7.14264 13.0905 7.16161 13.111 7.1751 13.1339C7.18858 13.1568 7.19629 13.1817 7.19778 13.2071C7.19927 13.2325 7.19451 13.2579 7.18377 13.2818C7.17304 13.3056 7.15655 13.3275 7.13529 13.3461L6.29401 14.0803ZM8.49809 15.8549L7.31847 15.5747C7.25937 15.5607 7.20951 15.528 7.17985 15.4839C7.15019 15.4398 7.14316 15.3878 7.1603 15.3394L9.8003 7.89947C9.81747 7.85112 9.85741 7.81032 9.91133 7.78606C9.96525 7.76179 10.0287 7.75603 10.0878 7.77006L11.2674 8.05025C11.2967 8.05721 11.324 8.06881 11.3478 8.08439C11.3716 8.09998 11.3914 8.11924 11.406 8.14109C11.4207 8.16294 11.43 8.18694 11.4334 8.21172C11.4367 8.2365 11.434 8.26158 11.4256 8.28552L8.78555 15.7255C8.77707 15.7494 8.76291 15.7718 8.74387 15.7913C8.72483 15.8107 8.70129 15.8269 8.6746 15.8389C8.6479 15.851 8.61857 15.8586 8.58829 15.8613C8.558 15.864 8.52735 15.8619 8.49809 15.8549ZM15.4071 11.951L12.6199 14.0889C12.5977 14.106 12.5716 14.1193 12.5431 14.1281C12.5145 14.1368 12.4842 14.141 12.4537 14.1402C12.4233 14.1394 12.3933 14.1337 12.3655 14.1234C12.3378 14.1131 12.3128 14.0984 12.2919 14.0803L11.4506 13.346C11.4293 13.3275 11.4129 13.3056 11.4021 13.2817C11.3914 13.2579 11.3866 13.2325 11.3881 13.2071C11.3896 13.1817 11.3973 13.1568 11.4108 13.1338C11.4243 13.1109 11.4433 13.0905 11.4666 13.0737L13.2182 11.8125L11.4666 10.5513C11.4433 10.5345 11.4243 10.514 11.4108 10.4911C11.3974 10.4682 11.3896 10.4433 11.3882 10.4179C11.3867 10.3925 11.3914 10.3671 11.4022 10.3432C11.4129 10.3194 11.4294 10.2975 11.4506 10.2789L12.292 9.54471C12.3128 9.52652 12.3378 9.51187 12.3656 9.50159C12.3934 9.49131 12.4233 9.48561 12.4538 9.48481C12.4842 9.484 12.5146 9.48812 12.5431 9.49691C12.5716 9.50571 12.5977 9.51901 12.62 9.53606L15.4072 11.674C15.4303 11.6917 15.4488 11.7132 15.4614 11.737C15.474 11.7608 15.4805 11.7865 15.4805 11.8125C15.4805 11.8385 15.474 11.8641 15.4613 11.888C15.4487 11.9118 15.4303 11.9332 15.4071 11.951Z" fill="#1B1B1B"/>
        </g>
        <defs>
        <clipPath id="clip0_1_1598">
        <rect width="16.5" height="18" fill="white" transform="translate(1)"/>
        </clipPath>
        </defs>    
    </g>


    <!-- social -->

    <g id="dribbble">
        <g clip-path="url(#clip0_1_1471)">
        <path d="M11.6603 6.75017C11.6124 5.83195 11.2931 4.94861 10.7427 4.21209C10.575 4.3927 10.3957 4.56223 10.206 4.71959C9.62321 5.20366 8.97196 5.59878 8.27342 5.89209C8.37084 6.09625 8.46009 6.294 8.53884 6.48067V6.48242C8.56106 6.53458 8.58245 6.58709 8.60301 6.63992C9.48617 6.54075 10.4172 6.57692 11.3196 6.69884C11.4398 6.71517 11.5529 6.73267 11.6603 6.75017ZM6.18567 2.40434C6.75415 3.20535 7.27838 4.03688 7.75601 4.89517C8.46942 4.614 9.05917 4.25934 9.53401 3.86442C9.69883 3.72858 9.85398 3.58142 9.99834 3.424C9.15891 2.71801 8.09685 2.33161 7.00001 2.33317C6.72703 2.33298 6.45455 2.3566 6.18567 2.40375V2.40434ZM2.48092 5.83142C2.8783 5.82139 3.27521 5.79746 3.67092 5.75967C4.62738 5.67412 5.57567 5.5138 6.50709 5.28017C6.0203 4.43446 5.49474 3.61167 4.93209 2.81442C4.33109 3.11215 3.80116 3.53566 3.37823 4.05621C2.95531 4.57677 2.64928 5.18219 2.48092 5.83142ZM3.37342 9.93692C3.59976 9.60617 3.89726 9.234 4.29217 8.82917C5.14034 7.96 6.14134 7.28334 7.29984 6.91L7.33601 6.8995C7.23976 6.68717 7.14934 6.49759 7.05834 6.31909C5.98734 6.63117 4.85917 6.826 3.73509 6.92692C3.18676 6.9765 2.69501 6.99809 2.33334 7.00159C2.33231 8.0706 2.69984 9.10729 3.37401 9.93692H3.37342ZM8.75292 11.3253C8.52797 10.1908 8.20955 9.07694 7.80092 7.995C6.63309 8.41909 5.70267 9.03917 4.98342 9.77884C4.69316 10.0719 4.43556 10.3956 4.21517 10.7443C5.01948 11.3444 5.99648 11.6679 7.00001 11.6665C7.60079 11.6674 8.19605 11.5519 8.75292 11.3264V11.3253ZM9.84551 10.6982C10.7562 9.99803 11.3767 8.9865 11.5879 7.85734C11.3896 7.80775 11.1382 7.75817 10.8617 7.71967C10.2469 7.63115 9.62313 7.62467 9.00667 7.70042C9.35379 8.67974 9.63404 9.68148 9.84551 10.6988V10.6982ZM7.00001 12.8332C3.77826 12.8332 1.16667 10.2216 1.16667 6.99984C1.16667 3.77809 3.77826 1.1665 7.00001 1.1665C10.2218 1.1665 12.8333 3.77809 12.8333 6.99984C12.8333 10.2216 10.2218 12.8332 7.00001 12.8332Z" fill="#2B2B2B"/>
        </g>
        <defs>
        <clipPath id="clip0_1_1471">
        <rect width="14" height="14" fill="white"/>
        </clipPath>
        </defs>    
    </g>

    <g id="facebook">
        <g clip-path="url(#clip0_1_1459)">
        <path d="M8.16666 7.87484H9.625L10.2083 5.5415H8.16666V4.37484C8.16666 3.774 8.16666 3.20817 9.33333 3.20817H10.2083V1.24817C10.0182 1.22309 9.30008 1.1665 8.54175 1.1665C6.95799 1.1665 5.83333 2.13309 5.83333 3.90817V5.5415H4.08333V7.87484H5.83333V12.8332H8.16666V7.87484Z" fill="#1B1B1B"/>
        </g>
        <defs>
        <clipPath id="clip0_1_1459">
        <rect width="14" height="14" fill="white"/>
        </clipPath>
        </defs>    
    </g>

    <g id="instagram">
        <g clip-path="url(#clip0_1_1462)">
        <path d="M7.00001 1.1665C8.58492 1.1665 8.78267 1.17234 9.40451 1.2015C10.0258 1.23067 10.4487 1.32809 10.8208 1.47275C11.2058 1.62092 11.5302 1.82159 11.8545 2.14534C12.1511 2.43694 12.3806 2.78968 12.5271 3.179C12.6712 3.55059 12.7692 3.97409 12.7983 4.59534C12.8258 5.21717 12.8333 5.41492 12.8333 6.99984C12.8333 8.58475 12.8275 8.7825 12.7983 9.40434C12.7692 10.0256 12.6712 10.4485 12.5271 10.8207C12.3811 11.2102 12.1515 11.563 11.8545 11.8543C11.5628 12.1509 11.2101 12.3804 10.8208 12.5269C10.4493 12.671 10.0258 12.769 9.40451 12.7982C8.78267 12.8256 8.58492 12.8332 7.00001 12.8332C5.41509 12.8332 5.21734 12.8273 4.59551 12.7982C3.97426 12.769 3.55134 12.671 3.17917 12.5269C2.7897 12.3808 2.4369 12.1512 2.14551 11.8543C1.84883 11.5628 1.6193 11.21 1.47292 10.8207C1.32826 10.4491 1.23084 10.0256 1.20167 9.40434C1.17426 8.7825 1.16667 8.58475 1.16667 6.99984C1.16667 5.41492 1.17251 5.21717 1.20167 4.59534C1.23084 3.9735 1.32826 3.55117 1.47292 3.179C1.61889 2.78944 1.84847 2.43661 2.14551 2.14534C2.43698 1.84856 2.78976 1.61901 3.17917 1.47275C3.55134 1.32809 3.97367 1.23067 4.59551 1.2015C5.21734 1.17409 5.41509 1.1665 7.00001 1.1665ZM7.00001 4.08317C6.22646 4.08317 5.48459 4.39046 4.93761 4.93744C4.39063 5.48442 4.08334 6.22629 4.08334 6.99984C4.08334 7.77339 4.39063 8.51525 4.93761 9.06223C5.48459 9.60921 6.22646 9.9165 7.00001 9.9165C7.77355 9.9165 8.51542 9.60921 9.0624 9.06223C9.60938 8.51525 9.91667 7.77339 9.91667 6.99984C9.91667 6.22629 9.60938 5.48442 9.0624 4.93744C8.51542 4.39046 7.77355 4.08317 7.00001 4.08317ZM10.7917 3.93734C10.7917 3.74395 10.7149 3.55848 10.5781 3.42174C10.4414 3.28499 10.2559 3.20817 10.0625 3.20817C9.86912 3.20817 9.68365 3.28499 9.54691 3.42174C9.41016 3.55848 9.33334 3.74395 9.33334 3.93734C9.33334 4.13072 9.41016 4.31619 9.54691 4.45294C9.68365 4.58968 9.86912 4.6665 10.0625 4.6665C10.2559 4.6665 10.4414 4.58968 10.5781 4.45294C10.7149 4.31619 10.7917 4.13072 10.7917 3.93734ZM7.00001 5.24984C7.46413 5.24984 7.90925 5.43421 8.23744 5.7624C8.56563 6.09059 8.75001 6.53571 8.75001 6.99984C8.75001 7.46397 8.56563 7.90909 8.23744 8.23727C7.90925 8.56546 7.46413 8.74984 7.00001 8.74984C6.53588 8.74984 6.09076 8.56546 5.76257 8.23727C5.43438 7.90909 5.25001 7.46397 5.25001 6.99984C5.25001 6.53571 5.43438 6.09059 5.76257 5.7624C6.09076 5.43421 6.53588 5.24984 7.00001 5.24984Z" fill="#1B1B1B"/>
        </g>
        <defs>
        <clipPath id="clip0_1_1462">
        <rect width="14" height="14" fill="white"/>
        </clipPath>
        </defs>    
    </g>

    <g id="twitter">
        <g clip-path="url(#clip0_1_1465)">
        <path d="M12.9278 3.29953C12.4825 3.49652 12.0102 3.62589 11.5267 3.68337C12.0364 3.37854 12.4178 2.89879 12.6 2.33353C12.1217 2.6182 11.5973 2.8177 11.0507 2.92562C10.6835 2.53279 10.1969 2.27226 9.66639 2.18454C9.13591 2.09682 8.5913 2.18682 8.11724 2.44055C7.64318 2.69428 7.26623 3.09752 7.04498 3.58758C6.82374 4.07764 6.7706 4.62707 6.89383 5.15045C5.92381 5.10183 4.97486 4.84976 4.10858 4.41059C3.24231 3.97142 2.47807 3.35498 1.8655 2.60128C1.64867 2.97371 1.53472 3.39708 1.53533 3.82803C1.53533 4.67387 1.96583 5.42112 2.62033 5.85862C2.23301 5.84642 1.8542 5.74182 1.5155 5.55354V5.58387C1.51562 6.14719 1.71055 6.69314 2.06724 7.12915C2.42394 7.56516 2.92045 7.8644 3.47258 7.97612C3.11303 8.07356 2.73601 8.08792 2.37008 8.01812C2.52576 8.503 2.82917 8.92707 3.23785 9.23093C3.64652 9.5348 4.13999 9.70325 4.64917 9.7127C4.14311 10.1101 3.56369 10.4039 2.94401 10.5773C2.32434 10.7507 1.67657 10.8002 1.03775 10.723C2.15291 11.4402 3.45106 11.8209 4.77692 11.8197C9.2645 11.8197 11.7186 8.10212 11.7186 4.87804C11.7186 4.77304 11.7157 4.66687 11.711 4.56303C12.1887 4.2178 12.6009 3.79013 12.9284 3.30012L12.9278 3.29953Z" fill="#1B1B1B"/>
        </g>
        <defs>
        <clipPath id="clip0_1_1465">
        <rect width="14" height="14" fill="white"/>
        </clipPath>
        </defs>    
    </g>

    <g id="youtube">
        <g clip-path="url(#clip0_1_85)">
        <path d="M12.5667 3.79066C12.8333 4.83016 12.8333 7.00016 12.8333 7.00016C12.8333 7.00016 12.8333 9.17016 12.5667 10.2097C12.4185 10.7842 11.9851 11.2363 11.4362 11.3892C10.4393 11.6668 6.99996 11.6668 6.99996 11.6668C6.99996 11.6668 3.56238 11.6668 2.56371 11.3892C2.01246 11.234 1.57963 10.7825 1.43321 10.2097C1.16663 9.17016 1.16663 7.00016 1.16663 7.00016C1.16663 7.00016 1.16663 4.83016 1.43321 3.79066C1.58138 3.21608 2.01479 2.764 2.56371 2.61116C3.56238 2.3335 6.99996 2.3335 6.99996 2.3335C6.99996 2.3335 10.4393 2.3335 11.4362 2.61116C11.9875 2.76633 12.4203 3.21783 12.5667 3.79066ZM5.83329 9.04183L9.33329 7.00016L5.83329 4.9585V9.04183Z" fill="#2B2B2B"/>
        </g>
        <defs>
        <clipPath id="clip0_1_85">
        <rect width="14" height="14" fill="white"/>
        </clipPath>
        </defs>
    </g>

    <g id="linkedIn">
    <path d="M3.0483 1.91676C3.04814 2.22618 2.92508 2.52287 2.70618 2.74155C2.48728 2.96023 2.19047 3.083 1.88105 3.08285C1.57163 3.08269 1.27495 2.95963 1.05626 2.74072C0.837579 2.52182 0.714811 2.22501 0.714966 1.9156C0.715121 1.60618 0.838185 1.30949 1.05709 1.09081C1.27599 0.872125 1.5728 0.749357 1.88222 0.749512C2.19164 0.749667 2.48832 0.872731 2.707 1.09163C2.92569 1.31053 3.04845 1.60734 3.0483 1.91676ZM3.0833 3.94676H0.749966V11.2501H3.0833V3.94676ZM6.76997 3.94676H4.4483V11.2501H6.74663V7.4176C6.74663 5.2826 9.52913 5.08426 9.52913 7.4176V11.2501H11.8333V6.62426C11.8333 3.0251 7.71497 3.15926 6.74663 4.92676L6.76997 3.94676Z" fill="#2B2B2B"/>    
    </g>

    <!-- Price -->

    <g id="check">
        <g clip-path="url(#clip0_1_521)">
        <path d="M10.3689 15.172L19.8999 5.979L21.3671 7.393L10.3689 18L3.77014 11.636L5.2363 10.222L10.3689 15.172Z" fill="#FFB400"/>
        </g>
        <defs>
        <clipPath id="clip0_1_521">
        <rect width="24.8852" height="24" fill="white"/>
        </clipPath>
        </defs>
    </g>

    <g id="cross">
        <g clip-path="url(#clip0_1_541)">
        <path d="M12.4426 10.586L17.5752 5.63599L19.0413 7.04999L13.9088 12L19.0413 16.95L17.5752 18.364L12.4426 13.414L7.31003 18.364L5.84387 16.95L10.9765 12L5.84387 7.04999L7.31003 5.63599L12.4426 10.586Z" fill="#767676"/>
        </g>
        <defs>
        <clipPath id="clip0_1_541">
        <rect width="24.8852" height="24" fill="white"/>
        </clipPath>
        </defs>
    </g>

    <g id="star">
        <path d="M9 13.2448L12.9107 12.2343L14.5446 17.3684L9 13.2448ZM18 6.60873H11.1161L9 0L6.88393 6.60873H0L5.57143 10.7051L3.45535 17.3138L9.02679 13.2175L12.4554 10.7051L18 6.60873Z" fill="#FFB400"/>    
    </g>

    <!-- Contact -->
    <g id="mail">
        <g clip-path="url(#clip0_1_967)">
        <path d="M2.25 2.25H15.75C15.9489 2.25 16.1397 2.32902 16.2803 2.46967C16.421 2.61032 16.5 2.80109 16.5 3V15C16.5 15.1989 16.421 15.3897 16.2803 15.5303C16.1397 15.671 15.9489 15.75 15.75 15.75H2.25C2.05109 15.75 1.86032 15.671 1.71967 15.5303C1.57902 15.3897 1.5 15.1989 1.5 15V3C1.5 2.80109 1.57902 2.61032 1.71967 2.46967C1.86032 2.32902 2.05109 2.25 2.25 2.25ZM9.045 8.76225L4.236 4.6785L3.26475 5.8215L9.05475 10.7378L14.7405 5.81775L13.7595 4.683L9.04575 8.76225H9.045Z" fill="#2B2B2B"/>
        </g>
        <defs>
        <clipPath id="clip0_1_967">
        <rect width="18" height="18" fill="white"/>
        </clipPath>
        </defs>    
    </g>

    <g id="mobile">
        <g clip-path="url(#clip0_1_981)">
        <path d="M4.5 1.5H13.5C13.6989 1.5 13.8897 1.57902 14.0303 1.71967C14.171 1.86032 14.25 2.05109 14.25 2.25V15.75C14.25 15.9489 14.171 16.1397 14.0303 16.2803C13.8897 16.421 13.6989 16.5 13.5 16.5H4.5C4.30109 16.5 4.11032 16.421 3.96967 16.2803C3.82902 16.1397 3.75 15.9489 3.75 15.75V2.25C3.75 2.05109 3.82902 1.86032 3.96967 1.71967C4.11032 1.57902 4.30109 1.5 4.5 1.5ZM9 12.75C8.80109 12.75 8.61032 12.829 8.46967 12.9697C8.32902 13.1103 8.25 13.3011 8.25 13.5C8.25 13.6989 8.32902 13.8897 8.46967 14.0303C8.61032 14.171 8.80109 14.25 9 14.25C9.19891 14.25 9.38968 14.171 9.53033 14.0303C9.67098 13.8897 9.75 13.6989 9.75 13.5C9.75 13.3011 9.67098 13.1103 9.53033 12.9697C9.38968 12.829 9.19891 12.75 9 12.75Z" fill="#2B2B2B"/>
        </g>
        <defs>
        <clipPath id="clip0_1_981">
        <rect width="18" height="18" fill="white"/>
        </clipPath>
        </defs>    
    </g>

    <g id="map">
        <path d="M0.5 2.75L5.75 0.5L10.25 2.75L14.9772 0.72425C15.0343 0.699788 15.0966 0.689877 15.1584 0.695407C15.2202 0.700937 15.2797 0.721735 15.3316 0.755934C15.3834 0.790133 15.4259 0.836663 15.4553 0.891348C15.4847 0.946034 15.5001 1.00716 15.5 1.06925V13.25L10.25 15.5L5.75 13.25L1.02275 15.2758C0.965685 15.3002 0.90344 15.3101 0.841599 15.3046C0.779759 15.2991 0.720259 15.2783 0.66844 15.2441C0.616621 15.2099 0.574104 15.1633 0.544705 15.1087C0.515306 15.054 0.499945 14.9928 0.5 14.9307V2.75ZM10.25 13.823V4.382L10.2013 4.403L5.75 2.177V11.618L5.79875 11.597L10.25 13.823Z" fill="#2B2B2B"/>    
    </g>

<!-- Extra skills -->
    <g id="extra">
        <rect x="0.5" y="0.5" width="9" height="9" stroke="#FFB400"/>
        <rect x="5.5" y="5.5" width="9" height="9" stroke="#FFB400"/>    
    </g>


    <g id="moon">
        <path d="M12.5 25C5.59625 25 0 19.4037 0 12.5C0 5.59625 5.59625 0 12.5 0C19.4037 0 25 5.59625 25 12.5C25 19.4037 19.4037 25 12.5 25ZM4.16125 18.0312C4.98286 19.2605 6.06683 20.2923 7.33513 21.0523C8.60342 21.8123 10.0245 22.2816 11.4959 22.4264C12.9674 22.5712 14.4526 22.3879 15.8448 21.8897C17.2369 21.3915 18.5012 20.5908 19.5466 19.5452C20.5921 18.4997 21.3927 17.2353 21.8908 15.8432C22.3888 14.451 22.572 12.9657 22.4271 11.4943C22.2822 10.0228 21.8127 8.60183 21.0526 7.3336C20.2925 6.06538 19.2606 4.98149 18.0312 4.16C18.5702 6.08278 18.5875 8.1144 18.0814 10.0461C17.5752 11.9778 16.5639 13.7398 15.1513 15.1513C13.74 16.5637 11.9781 17.5749 10.0467 18.081C8.11522 18.5872 6.08385 18.57 4.16125 18.0312Z" fill="#2B2B2B"/> 
    </g>

    <g id="downlood">
        <g filter="url(#filter0_d_1_228)">
        <path d="M2.33329 10.9523H11.6666V6.28564H12.8333V11.619C12.8333 11.7958 12.7718 11.9654 12.6624 12.0904C12.553 12.2154 12.4047 12.2856 12.25 12.2856H1.74996C1.59525 12.2856 1.44688 12.2154 1.33748 12.0904C1.22808 11.9654 1.16663 11.7958 1.16663 11.619V6.28564H2.33329V10.9523ZM8.16663 4.28564H11.0833L6.99996 8.95231L2.91663 4.28564H5.83329V0.285645H8.16663V4.28564Z" fill="#2B2B2B"/>
        <path d="M1.83329 10.9523V11.4523H2.33329H11.6666H12.1666V10.9523V6.78564H12.3333V11.619C12.3333 11.6831 12.3104 11.7334 12.2862 11.7611C12.2747 11.7742 12.2649 11.7803 12.2593 11.783C12.2538 11.7855 12.2509 11.7856 12.25 11.7856H1.74996C1.74899 11.7856 1.74609 11.7855 1.74066 11.783C1.73503 11.7803 1.7252 11.7742 1.71377 11.7611C1.68953 11.7334 1.66663 11.6831 1.66663 11.619V6.78564H1.83329V10.9523ZM7.66663 4.28564V4.78564H8.16663H9.98141L6.99996 8.19302L4.01851 4.78564H5.83329H6.33329V4.28564V0.785645H7.66663V4.28564Z" stroke="black"/>
        </g>
        <defs>
        <filter id="filter0_d_1_228" x="-2.83337" y="0.285645" width="19.6666" height="20" filterUnits="userSpaceOnUse" color-interpolation-filters="sRGB">
        <feFlood flood-opacity="0" result="BackgroundImageFix"/>
        <feColorMatrix in="SourceAlpha" type="matrix" values="0 0 0 0 0 0 0 0 0 0 0 0 0 0 0 0 0 0 127 0" result="hardAlpha"/>
        <feOffset dy="4"/>
        <feGaussianBlur stdDeviation="2"/>
        <feComposite in2="hardAlpha" operator="out"/>
        <feColorMatrix type="matrix" values="0 0 0 0 0 0 0 0 0 0 0 0 0 0 0 0 0 0 0.25 0"/>
        <feBlend mode="normal" in2="BackgroundImageFix" result="effect1_dropShadow_1_228"/>
        <feBlend mode="normal" in="SourceGraphic" in2="effect1_dropShadow_1_228" result="shape"/>
        </filter>
        </defs>
    </g>

</svg>
